<svg width="27" height="30" viewBox="0 0 27 30" fill="none" xmlns="http://www.w3.org/2000/svg">
<path d="M5.23975 12.5529C5.23373 12.5414 5.22771 12.5356 5.22168 12.524C5.05305 12.241 4.67361 12.1601 4.39054 12.3392C4.38452 12.3392 4.38452 12.3449 4.3785 12.3449C4.11349 12.5125 4.04122 12.8533 4.20986 13.1075C4.21588 13.1133 4.2219 13.1248 4.22793 13.1364C4.40259 13.4021 4.76998 13.483 5.04702 13.3097C5.05305 13.3097 5.05305 13.3039 5.05907 13.3039C5.31202 13.1421 5.39634 12.8129 5.23975 12.5529Z" fill="#CC9A26"/>
<path d="M15.4063 26.9196C15.2015 26.7232 14.8823 26.6943 14.6414 26.856C13.5753 27.5608 12.3648 28.0229 11.0699 28.2078C10.6423 28.2656 10.2086 28.3002 9.78101 28.3002C7.49236 28.3002 5.3362 27.451 3.71608 25.9087C2.10198 24.3663 1.21061 22.3155 1.20458 20.1377C1.20458 18.1852 1.95743 16.2673 3.28846 14.7942C3.48721 14.5747 3.48721 14.2512 3.28244 14.0375L3.27642 14.0317C3.03551 13.7775 2.61391 13.7775 2.37902 14.0375C0.855264 15.7243 -0.00599139 17.9137 3.13772e-05 20.1435C3.13772e-05 22.6333 1.01788 24.9728 2.86687 26.7347C4.71586 28.4966 7.16713 29.4671 9.78101 29.4671C10.2689 29.4671 10.7687 29.4325 11.2506 29.3631C12.7322 29.1494 14.1234 28.6237 15.34 27.815C15.6472 27.6128 15.6773 27.1969 15.4183 26.9427C15.4123 26.9254 15.4123 26.9196 15.4063 26.9196Z" fill="#CC9A26"/>
<path d="M16.4542 25.2561C16.4361 25.2734 16.424 25.2908 16.406 25.3139C16.1952 25.5565 16.2373 25.9204 16.4963 26.1168C16.5023 26.1226 16.5084 26.1284 16.5144 26.1284C16.7673 26.3248 17.1347 26.2786 17.3395 26.0417C17.3576 26.0244 17.3696 26.0071 17.3877 25.984C17.5985 25.7298 17.5503 25.3601 17.2793 25.1695C17.2793 25.1695 17.2732 25.1637 17.2672 25.1637C17.0143 24.9788 16.6529 25.0193 16.4542 25.2561Z" fill="#CC9A26"/>
<path d="M26.9932 9.94752L26.9872 7.70038C26.9812 7.08227 26.3909 7.07649 26.3849 7.07649C22.6508 7.07649 19.5792 4.15924 19.5491 0.571896C19.5491 0.30039 19.3383 0.0173302 18.9468 0H14.1767C13.8455 0 13.5745 0.259953 13.5745 0.577673V13.2056L13.5684 20.1261C13.5684 21.6801 12.5265 23.0549 10.9787 23.5459C10.533 23.6846 10.0692 23.7481 9.59944 23.725C7.61795 23.6326 6.03999 22.0729 6.00987 20.1781C5.99783 19.2076 6.37726 18.2949 7.08795 17.6017C7.80466 16.9027 8.7683 16.5157 9.79217 16.5157C10.1957 16.5157 10.5992 16.5792 10.9847 16.7005C11.2135 16.7698 11.4665 16.7063 11.6291 16.533C11.7255 16.4232 11.7737 16.2788 11.7737 16.1402V11.4784C11.7737 11.1953 11.5568 10.9469 11.2617 10.9065C10.7739 10.8371 10.28 10.8025 9.79217 10.8025C8.72012 10.8025 7.6842 10.9642 6.70249 11.2762C6.38328 11.3802 6.23271 11.721 6.38328 12.0098V12.0156C6.40135 12.0445 6.41942 12.0791 6.43147 12.108C6.55192 12.3391 6.83499 12.4488 7.08795 12.368C7.94318 12.0965 8.85262 11.9578 9.78615 11.9578C10.0451 11.9578 10.3041 11.9694 10.5631 11.9925V15.4239C10.3041 15.3834 10.0451 15.3661 9.78615 15.3661C8.43705 15.3661 7.17227 15.8744 6.22669 16.7929C5.28714 17.7057 4.78123 18.913 4.7993 20.1954C4.83543 22.6968 6.91931 24.7533 9.53319 24.8746C10.1535 24.9035 10.7618 24.8226 11.3521 24.6377C13.3998 23.9907 14.773 22.1769 14.773 20.1203L14.779 13.1998V1.15535H16.351C17.0737 1.14957 17.8687 1.14379 18.3746 1.14957C18.5312 2.98657 19.3503 4.6907 20.7295 6.00202C22.1027 7.30756 23.8854 8.08164 25.7947 8.22028C25.7947 9.08679 25.8007 10.7678 25.8067 11.6632C24.4516 11.5997 23.1326 11.3108 21.8799 10.8025C20.9584 10.4328 20.0971 9.94752 19.3081 9.36407C19.1275 9.23121 18.8805 9.2081 18.6758 9.30053C18.471 9.39296 18.3385 9.60092 18.3385 9.82043L18.3626 20.1666C18.3565 21.3161 18.1036 22.4253 17.6278 23.4477C17.5073 23.7019 17.6037 24.0023 17.8446 24.1525C17.8506 24.1525 17.8506 24.1583 17.8567 24.1583C18.1638 24.3489 18.5794 24.2334 18.73 23.9156C19.272 22.7487 19.5611 21.4836 19.5671 20.1666L19.531 10.918C20.1272 11.2762 20.7476 11.5939 21.398 11.8538C22.982 12.4951 24.6624 12.8243 26.3909 12.8243C26.5535 12.8243 26.7101 12.7666 26.8246 12.6568C26.939 12.5471 26.9992 12.4026 26.9992 12.2467L26.9932 9.94752Z" fill="#CC9A26"/>
</svg>
