<svg width="32" height="31" viewBox="0 0 32 31" fill="none" xmlns="http://www.w3.org/2000/svg">
<g clip-path="url(#clip0_299_669)">
<path d="M9.375 0H22.625C27.7944 0 32 4.03382 32 8.99201V21.7007C32 26.6589 27.7944 30.6927 22.625 30.6927H9.375C4.20563 30.6927 0 26.6589 0 21.7007V8.99201C0 4.03382 4.20563 0 9.375 0ZM1.25 21.7007C1.25 25.9978 4.89487 29.4938 9.375 29.4938H22.625C27.1051 29.4938 30.75 25.9978 30.75 21.7007V8.99201C30.75 4.69491 27.1051 1.19894 22.625 1.19894H9.375C4.89487 1.19894 1.25 4.69491 1.25 8.99201V21.7007Z" fill="#CC9A26"/>
<path d="M9.375 2.6377H22.625C26.2781 2.6377 29.25 5.48822 29.25 8.99205V21.7008C29.25 25.2046 26.2781 28.0551 22.625 28.0551H18.8125C18.4673 28.0551 18.1875 27.7867 18.1875 27.4557C18.1875 27.1246 18.4673 26.8562 18.8125 26.8562H22.625C25.5887 26.8562 28 24.5434 28 21.7008V8.99205C28 6.14938 25.5887 3.83663 22.625 3.83663H9.375C6.41125 3.83663 4 6.14938 4 8.99205V21.7008C4 24.5434 6.41125 26.8562 9.375 26.8562H13.1458C13.491 26.8562 13.7708 27.1246 13.7708 27.4557C13.7708 27.7867 13.491 28.0551 13.1458 28.0551H9.375C5.72194 28.0551 2.75 25.2046 2.75 21.7008V8.99205C2.75 5.48822 5.72194 2.6377 9.375 2.6377Z" fill="#CC9A26"/>
<path d="M15.5581 27.0321C15.6744 26.9206 15.8356 26.8564 16 26.8564C16.1644 26.8564 16.3256 26.9206 16.4419 27.0321C16.5581 27.1436 16.625 27.2983 16.625 27.4559C16.625 27.6136 16.5581 27.7682 16.4419 27.8797C16.3256 27.9912 16.1644 28.0554 16 28.0554C15.8356 28.0554 15.6744 27.9912 15.5581 27.8797C15.4419 27.7682 15.375 27.6136 15.375 27.4559C15.375 27.2983 15.4419 27.1436 15.5581 27.0321Z" fill="#CC9A26"/>
<path d="M21.0106 9.33413C21.2467 9.09254 21.6421 9.08019 21.894 9.30649L21.9217 9.33149C22.1728 9.55869 22.1843 9.93809 21.9473 10.1789C21.8244 10.3039 21.6587 10.3669 21.4927 10.3669C21.3388 10.3669 21.1846 10.3128 21.0638 10.2035L21.0394 10.1815C20.7875 9.95511 20.7746 9.57571 21.0106 9.33413Z" fill="#CC9A26"/>
<path d="M16 7.07324C17.3728 7.07324 18.739 7.39042 19.9511 7.99049C20.2577 8.14233 20.3781 8.50393 20.2198 8.79815C20.0614 9.09231 19.6844 9.20765 19.3777 9.05586C18.3274 8.53582 17.1909 8.27218 16 8.27218C11.9334 8.27218 8.625 11.4455 8.625 15.3459C8.625 19.2463 11.9334 22.4196 16 22.4196C20.0666 22.4196 23.375 19.2463 23.375 15.3459C23.375 14.1218 23.0441 12.9158 22.4179 11.8583C22.2475 11.5704 22.3526 11.2045 22.6528 11.041C22.953 10.8776 23.3344 10.9784 23.5049 11.2663C24.2377 12.5039 24.625 13.9147 24.625 15.3459C24.625 19.9074 20.7558 23.6185 16 23.6185C11.2442 23.6185 7.375 19.9074 7.375 15.3459C7.375 10.7844 11.2442 7.07324 16 7.07324Z" fill="#CC9A26"/>
<path d="M16 9.95117C19.1016 9.95117 21.625 12.3715 21.625 15.3464C21.625 18.3213 19.1016 20.7416 16 20.7416C12.8984 20.7416 10.375 18.3213 10.375 15.3464C10.375 12.3715 12.8984 9.95117 16 9.95117ZM16 19.5427C18.4124 19.5427 20.375 17.6602 20.375 15.3464C20.375 13.0326 18.4124 11.1501 16 11.1501C13.5876 11.1501 11.625 13.0326 11.625 15.3464C11.625 17.6602 13.5876 19.5427 16 19.5427Z" fill="#CC9A26"/>
<path d="M7.79688 5.2002C9.10644 5.2002 10.1719 6.22211 10.1719 7.47817C10.1719 8.73424 9.10644 9.75615 7.79688 9.75615C6.48731 9.75615 5.42188 8.73424 5.42188 7.47817C5.42188 6.22211 6.48731 5.2002 7.79688 5.2002ZM7.79688 8.55721C8.41719 8.55721 8.92188 8.07314 8.92188 7.47817C8.92188 6.8832 8.41719 6.39913 7.79688 6.39913C7.17656 6.39913 6.67188 6.8832 6.67188 7.47817C6.67188 8.07314 7.17656 8.55721 7.79688 8.55721Z" fill="#CC9A26"/>
</g>
<defs>
<clipPath id="clip0_299_669">
<rect width="32" height="30.6927" fill="white" transform="matrix(-1 0 0 1 32 0)"/>
</clipPath>
</defs>
</svg>
