<svg width="26" height="26" viewBox="0 0 26 26" fill="none" xmlns="http://www.w3.org/2000/svg">
<path d="M6.46514 8.31968H0.452423C0.21133 8.31968 0.0140715 8.51694 0.0140715 8.75803V11.0521C0.0140715 11.2932 0.21133 11.4904 0.452423 11.4904C0.693516 11.4904 0.890774 11.2932 0.890774 11.0521V9.19638H6.02679V25.1158H0.890774V12.5498C0.890774 12.3087 0.693516 12.1114 0.452423 12.1114C0.21133 12.1114 0.0140715 12.3087 0.0140715 12.5498V25.5542C0.0140715 25.7953 0.21133 25.9925 0.452423 25.9925H6.46514C6.70623 25.9925 6.90349 25.7953 6.90349 25.5542V8.75803C6.90349 8.50963 6.70623 8.31968 6.46514 8.31968ZM25.2777 20.0383C25.5188 20.0383 25.7161 19.841 25.7161 19.5999V13.9014C25.7161 10.2338 23.4659 8.29776 19.2066 8.29776C16.7664 8.29776 15.3929 9.02835 14.6404 9.72241V8.75803C14.6404 8.51694 14.4431 8.31968 14.202 8.31968H9.56282C9.32173 8.31968 9.12447 8.51694 9.12447 8.75803V25.5542C9.12447 25.7953 9.32173 25.9925 9.56282 25.9925H14.2532C14.4943 25.9925 14.6915 25.7953 14.6915 25.5542V15.8666C14.6915 15.4064 14.8303 13.1196 17.5773 13.1196C18.2787 13.1196 18.8413 13.3388 19.2504 13.7625C19.8495 14.3908 19.9518 15.2822 19.9444 15.4137C19.9152 15.7205 19.8933 23.9104 19.886 25.5542C19.886 25.6711 19.9298 25.7807 20.0175 25.8683C20.0979 25.9487 20.2148 25.9999 20.3244 25.9999H25.2777C25.5188 25.9999 25.7161 25.8026 25.7161 25.5615V21.178C25.7161 20.9369 25.5188 20.7396 25.2777 20.7396C25.0366 20.7396 24.8394 20.9369 24.8394 21.178V25.1085H20.7627C20.7773 21.2364 20.7992 15.7717 20.8138 15.4867C20.8431 15.1653 20.6896 14.0329 19.9225 13.2C19.3381 12.5644 18.549 12.2356 17.5773 12.2356C14.9838 12.2356 13.8148 14.0548 13.8148 15.8593V25.1085H10.0012V9.19638H13.7637V11.0886C13.7637 11.3078 13.9244 11.4904 14.1363 11.527C14.3482 11.5562 14.56 11.432 14.6185 11.2201C14.6477 11.1397 15.3344 9.17447 19.1992 9.17447C20.9819 9.17447 22.3627 9.53245 23.2978 10.2484C24.3133 11.0228 24.8321 12.2502 24.8321 13.9014V19.5999C24.8394 19.8483 25.0366 20.0383 25.2777 20.0383ZM3.44782 6.88773C4.06882 6.88773 4.70443 6.7197 5.27429 6.36171C6.05601 5.87222 6.59665 5.11241 6.80121 4.21379C7.00578 3.31517 6.85235 2.39463 6.36286 1.61291C5.47885 0.210183 3.72545 -0.366979 2.18391 0.239407C1.95743 0.327078 1.84784 0.582782 1.93551 0.809264C2.02318 1.03575 2.27889 1.14533 2.50537 1.05766C3.65239 0.6047 4.96013 1.03575 5.61766 2.08779C6.37017 3.28595 6.00487 4.87132 4.80671 5.62382C3.60855 6.37633 2.02318 6.01103 1.27068 4.81287C0.883469 4.19187 0.773881 3.43207 0.978445 2.7307C1.0442 2.49692 0.912692 2.25582 0.678905 2.19007C0.445117 2.12432 0.204024 2.25582 0.138271 2.48961C-0.139351 3.43207 0.00676567 4.45489 0.525481 5.28775C1.1757 6.31788 2.3008 6.88773 3.44782 6.88773Z" fill="#C59C40"/>
<path d="M0.861487 1.84692C0.941852 1.91267 1.04413 1.9492 1.14642 1.9492C1.27061 1.9492 1.39481 1.89806 1.48248 1.79577C1.54093 1.73002 1.59938 1.66427 1.65782 1.60582C1.83317 1.43779 1.84047 1.16017 1.66513 0.984825C1.4971 0.809484 1.21947 0.802178 1.04413 0.977519C0.963769 1.05788 0.883405 1.14555 0.80304 1.23322C0.649617 1.40856 0.678841 1.68619 0.861487 1.84692Z" fill="#C59C40"/>
</svg>
